<svg width="25" height="25" viewBox="0 0 25 25" fill="none" xmlns="http://www.w3.org/2000/svg">
<path d="M11.2604 1.31258C11.2604 1.02482 11.0273 0.791748 10.7395 0.791748H1.31246C1.0247 0.791748 0.791626 1.02482 0.791626 1.31258V10.7397C0.791626 11.0274 1.0247 11.2605 1.31246 11.2605H10.7395C11.0273 11.2605 11.2604 11.0274 11.2604 10.7397V1.31258ZM10.2187 10.2188H1.83329V1.83341H10.2187V10.2188Z" fill="black"/>
<path d="M24.2291 1.31258C24.2291 1.02482 23.9961 0.791748 23.7083 0.791748H14.2812C13.9934 0.791748 13.7604 1.02482 13.7604 1.31258V10.7397C13.7604 11.0274 13.9934 11.2605 14.2812 11.2605H23.7083C23.9961 11.2605 24.2291 11.0274 24.2291 10.7397V1.31258ZM23.1875 10.2188H14.802V1.83341H23.1875V10.2188Z" fill="black"/>
<path d="M11.2604 14.2813C11.2604 13.9936 11.0273 13.7605 10.7395 13.7605H1.31246C1.0247 13.7605 0.791626 13.9936 0.791626 14.2813V23.7084C0.791626 23.9962 1.0247 24.2293 1.31246 24.2293H10.7395C11.0273 24.2293 11.2604 23.9962 11.2604 23.7084V14.2813ZM10.2187 23.1355H1.83329V14.8022H10.2187V23.1355Z" fill="black"/>
<path d="M24.2291 14.2813C24.2291 13.9936 23.9961 13.7605 23.7083 13.7605H14.2812C13.9934 13.7605 13.7604 13.9936 13.7604 14.2813V23.7084C13.7604 23.9962 13.9934 24.2293 14.2812 24.2293H23.7083C23.9961 24.2293 24.2291 23.9962 24.2291 23.7084V14.2813ZM23.1875 23.1355H14.802V14.8022H23.1875V23.1355Z" fill="black"/>
</svg>
