<svg width="17" height="16" viewBox="0 0 17 16" fill="none" xmlns="http://www.w3.org/2000/svg">
<path d="M12.7993 0.0034511L10.7245 0.00012207C8.3935 0.00012207 6.88712 1.54563 6.88712 3.9377V5.75319H4.80098C4.62071 5.75319 4.47473 5.89933 4.47473 6.0796V8.71004C4.47473 8.8903 4.62088 9.03628 4.80098 9.03628H6.88712V15.6737C6.88712 15.854 7.03309 16 7.21336 16H9.93518C10.1154 16 10.2614 15.8538 10.2614 15.6737V9.03628H12.7006C12.8809 9.03628 13.0269 8.8903 13.0269 8.71004L13.0278 6.0796C13.0278 5.99305 12.9934 5.91015 12.9323 5.8489C12.8712 5.78765 12.788 5.75319 12.7014 5.75319H10.2614V4.21418C10.2614 3.47447 10.4377 3.09895 11.4013 3.09895L12.799 3.09845C12.9791 3.09845 13.1251 2.95231 13.1251 2.77221V0.329696C13.1251 0.149762 12.9792 0.00378401 12.7993 0.0034511Z" fill="white"/>
</svg>
