<svg width="17" height="16" viewBox="0 0 17 16" fill="none" xmlns="http://www.w3.org/2000/svg">
<g clip-path="url(#clip0)">
<path d="M9.80006 7.2V9.2H14.5201C14.0401 12 11.8001 14 9.00006 14C5.72006 14 3.00006 11.28 3.00006 8C3.00006 4.72 5.72006 2 9.00006 2C10.6801 2 12.1201 2.72 13.1601 3.84L14.6001 2.4C13.1601 0.96 11.2401 0 9.00006 0C4.60006 0 1.00006 3.6 1.00006 8C1.00006 12.4 4.60006 16 9.00006 16C13.4001 16 16.6001 12.4 16.6001 8V7.2H9.80006Z" fill="white"/>
</g>
<defs>
<clipPath id="clip0">
<rect width="16" height="16" fill="white" transform="translate(0.799988)"/>
</clipPath>
</defs>
</svg>
