<svg width="20" height="17" viewBox="0 0 20 17" fill="none" xmlns="http://www.w3.org/2000/svg">
<path d="M7.46134 16.3687C6.59648 16.3687 5.70629 16.2987 4.81075 16.1583C3.23347 15.9108 1.6368 15.0858 1.18499 14.8387L0 14.1908L1.28295 13.7689C2.68537 13.3078 3.53849 13.0217 4.59454 12.5737C3.53711 12.0617 2.72215 11.1405 2.32985 9.9497L2.03139 9.04364L2.27614 9.08102C2.04405 8.84711 1.8608 8.60968 1.71874 8.39377C1.21352 7.62641 0.946038 6.68877 1.00295 5.88525L1.0591 5.09439L1.53258 5.2778C1.33285 4.90061 1.1885 4.49778 1.10366 4.07557C0.896905 3.04591 1.06994 1.95202 1.59102 0.995453L2.00346 0.238318L2.55506 0.900849C4.29959 2.99648 6.5092 4.2396 9.13171 4.60352C9.02459 3.86515 9.10485 3.15257 9.3705 2.51384C9.6798 1.77014 10.23 1.1395 10.9612 0.689975C11.7733 0.190863 12.7581 -0.0509866 13.7342 0.00898005C14.7698 0.0726087 15.71 0.460637 16.4568 1.13187C16.8215 1.03711 17.0902 0.935944 17.4533 0.799227C17.6718 0.716982 17.9196 0.623599 18.2297 0.516789L19.3723 0.123115L18.6272 2.25109C18.6763 2.24697 18.727 2.24346 18.7799 2.24117L20 2.18593L19.2789 3.17149C19.2375 3.22795 19.227 3.24397 19.2123 3.2661C19.1542 3.35368 19.0819 3.46263 18.0921 4.78433C17.8443 5.11529 17.7205 5.54635 17.7435 5.99831C17.8313 7.71583 17.6206 9.26977 17.1169 10.6168C16.6405 11.8912 15.9023 12.9846 14.923 13.8668C13.7111 14.9581 12.1659 15.7053 10.33 16.0873C9.4294 16.2747 8.46231 16.3687 7.46134 16.3687Z" fill="white"/>
</svg>
